<?xml version="1.0" standalone="no"?>
<!DOCTYPE svg PUBLIC "-//W3C//DTD SVG 20010904//EN"
 "http://www.w3.org/TR/2001/REC-SVG-20010904/DTD/svg10.dtd">
<svg version="1.0" xmlns="http://www.w3.org/2000/svg"
 width="300.000000pt" height="195.000000pt" viewBox="0 0 300.000000 195.000000"
 preserveAspectRatio="xMidYMid meet">

<g transform="translate(0.000000,195.000000) scale(0.100000,-0.100000)"
fill="#000000" stroke="none">
<path d="M2010 1755 c-16 -29 -22 -30 -56 -9 -13 9 -26 15 -27 13 -2 -2 -8
-17 -15 -32 -10 -24 -15 -26 -32 -17 -29 16 -41 4 -28 -26 13 -28 0 -44 -34
-44 -24 0 -23 -22 2 -38 28 -17 25 -29 -12 -48 l-32 -17 22 -18 c12 -9 28 -19
35 -22 9 -3 9 -10 -2 -30 -17 -32 -10 -42 32 -42 27 0 32 -4 35 -27 3 -29 16
-34 42 -18 10 6 21 3 37 -12 l23 -21 24 22 c20 19 28 21 44 12 33 -18 41 -13
44 27 3 35 5 37 36 35 35 -1 36 3 17 49 -5 13 0 20 19 28 31 11 33 25 6 40
-25 13 -26 46 -2 59 21 12 8 28 -28 33 -21 3 -25 8 -25 38 0 35 0 35 -42 32
-39 -3 -42 -1 -45 24 -4 36 -21 40 -38 9z m21 -186 c9 -17 8 -25 -4 -37 -29
-28 -73 12 -47 43 17 21 37 19 51 -6z"/>
<path d="M1825 1670 c-3 -5 -1 -10 4 -10 6 0 11 5 11 10 0 6 -2 10 -4 10 -3 0
-8 -4 -11 -10z"/>
<path d="M1780 1639 c-7 -11 -10 -23 -7 -25 2 -2 9 7 15 21 14 30 7 33 -8 4z"/>
<path d="M1563 1603 c-15 -21 -35 -43 -43 -50 -13 -11 -13 -12 0 -13 8 0 28
20 43 45 16 25 34 42 39 38 7 -3 8 -1 4 5 -10 17 -12 16 -43 -25z"/>
<path d="M1567 1556 c-31 -49 -39 -50 -93 -9 -40 30 -61 22 -69 -28 -4 -21
-11 -41 -15 -44 -5 -3 -26 1 -47 10 -35 15 -39 15 -50 -1 -10 -14 -9 -23 8
-51 21 -33 21 -35 3 -48 -10 -7 -35 -16 -55 -19 -52 -8 -57 -32 -14 -57 52
-31 48 -64 -11 -90 -32 -15 -44 -25 -40 -36 3 -8 6 -16 6 -19 0 -2 18 -13 39
-24 22 -11 43 -25 46 -30 4 -6 -5 -28 -19 -50 -23 -35 -24 -39 -8 -53 12 -11
29 -14 58 -10 59 8 84 -9 84 -56 0 -46 17 -56 51 -30 34 26 52 24 72 -11 23
-38 50 -38 78 0 30 40 46 44 80 19 19 -13 36 -18 50 -14 19 6 21 13 17 57 -6
62 15 82 74 69 32 -8 38 -6 44 11 3 10 -1 30 -10 43 -25 38 -20 55 24 72 51
20 53 47 5 67 -45 19 -48 57 -8 98 37 39 23 62 -41 66 -52 3 -59 18 -42 86 9
38 -24 52 -73 33 -50 -21 -71 -8 -71 43 0 22 -4 40 -9 40 -5 0 -15 2 -23 5 -8
3 -24 -13 -41 -39z m15 -293 c39 -35 7 -98 -48 -91 -18 2 -34 13 -43 29 -13
24 -13 29 2 53 20 30 61 35 89 9z"/>
<path d="M1287 1536 c-4 -10 -1 -13 9 -9 8 3 25 -2 39 -11 29 -19 40 -16 48
16 6 22 5 22 -8 4 -15 -20 -15 -20 -76 12 -4 1 -9 -4 -12 -12z"/>
<path d="M1660 1530 c0 -5 5 -10 11 -10 5 0 7 5 4 10 -3 6 -8 10 -11 10 -2 0
-4 -4 -4 -10z"/>
<path d="M2185 1499 c-4 -6 -5 -12 -2 -15 2 -3 7 2 10 11 7 17 1 20 -8 4z"/>
<path d="M1171 1324 c0 -11 3 -14 6 -6 3 7 2 16 -1 19 -3 4 -6 -2 -5 -13z"/>
<path d="M1869 1289 c-9 -17 -8 -24 6 -38 16 -15 17 -15 7 4 -7 13 -7 26 -1
37 5 10 7 18 5 18 -3 0 -10 -10 -17 -21z"/>
<path d="M1180 1130 c8 -5 20 -10 25 -10 6 0 3 5 -5 10 -8 5 -19 10 -25 10 -5
0 -3 -5 5 -10z"/>
<path d="M1878 1079 c7 -9 9 -25 5 -34 -4 -13 -3 -16 5 -11 17 10 15 31 -5 47
-16 12 -17 12 -5 -2z"/>
<path d="M1252 974 c9 -9 21 -15 27 -13 6 2 -2 10 -17 17 -25 11 -25 11 -10
-4z"/>
<path d="M1763 910 c-11 -16 -10 -18 2 -14 8 4 15 12 15 20 0 19 -3 18 -17 -6z"/>
<path d="M1441 891 c-14 -10 -32 -16 -40 -13 -12 4 -13 2 -5 -7 9 -10 19 -9
45 4 33 17 33 17 54 -9 11 -14 26 -26 32 -26 7 0 1 12 -12 26 -14 15 -25 31
-25 35 0 15 -24 10 -49 -10z"/>
<path d="M386 741 c-12 -19 -196 -435 -196 -443 0 -4 58 -8 128 -8 l129 0 84
190 84 190 86 0 c97 0 120 -11 99 -50 -15 -28 -50 -40 -120 -40 -56 0 -60 -2
-76 -31 l-16 -31 76 -114 76 -114 135 0 c74 0 135 4 135 8 0 5 -29 51 -65 103
-36 52 -65 97 -65 100 0 4 17 9 38 13 21 3 57 19 81 36 94 69 109 161 30 189
-40 14 -635 15 -643 2z"/>
<path d="M1221 723 c-33 -69 -191 -426 -191 -430 0 -2 138 -3 308 -1 l307 3
54 30 c109 60 197 182 208 289 5 51 4 56 -30 92 l-35 39 -304 3 -304 3 -13
-28z m417 -85 c4 -36 -77 -209 -114 -243 -24 -23 -35 -25 -110 -25 -46 0 -84
2 -84 5 0 5 119 275 127 288 2 4 44 6 91 5 87 -3 87 -3 90 -30z"/>
<path d="M1975 533 c-53 -120 -99 -224 -102 -231 -4 -10 23 -12 128 -10 l132
3 82 185 82 185 94 0 c87 0 94 -1 97 -21 5 -37 -33 -59 -116 -64 -75 -5 -76
-5 -85 -36 -8 -28 -2 -41 63 -143 l72 -111 139 0 c76 0 139 2 139 4 0 3 -31
50 -70 106 -42 61 -65 102 -57 104 71 20 111 43 146 81 34 37 41 52 41 85 0
35 -4 43 -32 60 -31 19 -52 20 -344 20 l-312 0 -97 -217z"/>
<path d="M910 220 c-12 -8 -13 -13 -2 -30 10 -17 10 -20 -5 -20 -13 0 -14 -3
-5 -12 8 -8 15 -8 27 2 14 12 14 15 -1 31 -14 16 -14 18 3 21 10 2 14 6 8 10
-6 4 -17 3 -25 -2z"/>
<path d="M177 193 c-5 -29 2 -48 10 -25 4 10 9 8 20 -5 14 -17 14 -17 8 1 -3
11 0 23 6 27 16 9 2 29 -20 29 -12 0 -20 -9 -24 -27z m33 7 c0 -5 -4 -10 -10
-10 -5 0 -10 5 -10 10 0 6 5 10 10 10 6 0 10 -4 10 -10z"/>
<path d="M247 213 c-4 -3 -7 -19 -7 -34 0 -21 4 -26 18 -24 9 2 19 4 22 4 3 1
-2 6 -10 11 -12 8 -12 10 -1 10 10 0 11 3 2 14 -9 11 -9 15 1 19 9 4 8 6 -3 6
-9 1 -19 -2 -22 -6z"/>
<path d="M300 201 c-7 -15 -6 -23 6 -35 18 -18 34 -21 34 -6 0 6 -7 10 -15 10
-23 0 -18 30 8 40 l22 9 -22 0 c-12 1 -27 -8 -33 -18z"/>
<path d="M366 204 c-12 -31 -7 -52 12 -49 9 2 19 4 22 4 3 1 -2 6 -10 11 -12
8 -12 10 -1 10 10 0 11 3 2 14 -9 11 -9 15 1 19 9 4 8 6 -3 6 -9 1 -20 -6 -23
-15z"/>
<path d="M418 190 c-3 -17 -1 -30 4 -30 4 0 8 4 8 9 0 5 9 11 20 14 29 7 26
37 -4 37 -19 0 -25 -6 -28 -30z m32 10 c0 -5 -2 -10 -4 -10 -3 0 -8 5 -11 10
-3 6 -1 10 4 10 6 0 11 -4 11 -10z"/>
<path d="M487 213 c-12 -11 -7 -34 12 -59 18 -23 19 -23 24 -4 3 13 0 20 -9
20 -24 0 -16 38 9 43 20 4 20 4 -4 6 -14 0 -29 -2 -32 -6z"/>
<path d="M556 191 c-20 -38 -20 -47 -1 -31 8 7 22 10 31 6 12 -5 15 0 12 21
-4 38 -24 40 -42 4z"/>
<path d="M627 214 c-13 -13 -7 -52 9 -58 25 -9 56 12 52 37 -3 22 -45 36 -61
21z m43 -24 c0 -11 -6 -20 -14 -20 -18 0 -29 16 -21 30 11 18 35 11 35 -10z"/>
<path d="M766 198 c-9 -36 -8 -40 22 -36 21 2 28 9 30 31 3 23 0 27 -21 27
-17 0 -27 -7 -31 -22z m39 -8 c0 -7 -6 -15 -12 -17 -8 -3 -13 4 -13 17 0 13 5
20 13 18 6 -3 12 -11 12 -18z"/>
<path d="M840 191 c0 -29 15 -49 28 -36 3 3 0 10 -8 15 -11 7 -12 10 -2 10 7
0 10 5 6 11 -3 6 0 15 7 20 10 6 8 9 -8 9 -19 0 -23 -6 -23 -29z"/>
<path d="M956 198 c-9 -37 -7 -43 9 -22 13 17 14 17 15 2 0 -19 20 -26 20 -7
0 16 -20 49 -29 49 -5 0 -11 -10 -15 -22z"/>
<path d="M1005 210 c-4 -6 -2 -17 4 -24 6 -7 8 -16 4 -19 -3 -4 -1 -7 5 -7 7
0 12 14 12 30 0 30 -13 40 -25 20z"/>
<path d="M1052 195 c-17 -36 -15 -50 3 -35 12 10 18 10 30 0 12 -10 15 -9 15
8 0 54 -29 69 -48 27z"/>
<path d="M1118 190 c-3 -17 -1 -30 4 -30 4 0 8 7 8 15 0 8 5 15 10 15 6 0 10
7 10 15 0 28 -28 15 -32 -15z"/>
<path d="M1170 205 c0 -8 -4 -15 -10 -15 -5 0 -10 -7 -10 -15 0 -28 28 -15 32
15 3 17 1 30 -4 30 -4 0 -8 -7 -8 -15z"/>
<path d="M1209 183 l4 -38 8 29 c5 16 14 33 21 37 9 6 5 9 -12 9 -24 0 -26 -3
-21 -37z"/>
<path d="M1256 193 c-7 -26 9 -47 27 -36 5 3 3 9 -4 14 -12 7 -12 9 0 9 10 0
11 3 2 14 -10 11 -8 15 6 19 15 4 14 5 -3 6 -16 1 -24 -7 -28 -26z"/>
<path d="M1310 186 c0 -33 2 -34 28 -29 15 4 38 6 53 6 22 0 25 4 21 29 -5 35
-29 37 -44 3 -6 -14 -20 -25 -30 -25 -15 0 -17 5 -12 25 4 15 2 25 -5 25 -6 0
-11 -15 -11 -34z m90 4 c0 -5 -4 -10 -10 -10 -5 0 -10 5 -10 10 0 6 5 10 10
10 6 0 10 -4 10 -10z"/>
<path d="M1436 198 c-9 -37 -7 -43 9 -22 13 17 14 17 15 2 0 -10 5 -18 10 -18
11 0 12 6 4 38 -4 12 -12 22 -19 22 -7 0 -15 -10 -19 -22z"/>
<path d="M1484 209 c-3 -6 -2 -14 3 -18 6 -3 13 -13 16 -21 3 -8 6 0 6 18 1
32 -11 42 -25 21z"/>
<path d="M1528 190 c-4 -29 15 -50 27 -30 4 6 0 10 -7 10 -10 0 -10 2 1 9 7 5
11 13 7 19 -3 6 0 13 6 15 7 3 3 6 -8 6 -17 1 -23 -6 -26 -29z"/>
<path d="M1586 204 c-3 -9 -6 -25 -5 -37 0 -21 1 -21 10 2 9 23 10 23 23 5 17
-22 22 -19 31 19 5 17 3 27 -4 27 -6 0 -11 -8 -11 -17 -1 -17 -1 -17 -14 0
-16 21 -22 21 -30 1z"/>
<path d="M1667 214 c8 -4 10 -16 6 -36 -4 -22 -3 -29 5 -24 7 4 12 18 12 31 0
13 6 26 13 28 6 3 -1 5 -18 5 -16 0 -25 -2 -18 -4z"/>
<path d="M1727 214 c-13 -13 -7 -52 9 -58 25 -9 56 12 52 37 -3 22 -45 36 -61
21z m43 -24 c0 -11 -6 -20 -14 -20 -18 0 -29 16 -21 30 11 18 35 11 35 -10z"/>
<path d="M1837 193 c-5 -28 9 -47 26 -36 5 3 3 9 -4 14 -12 7 -12 9 0 9 10 0
11 3 2 14 -10 11 -8 15 6 19 15 4 14 5 -3 6 -16 1 -23 -6 -27 -26z"/>
<path d="M1926 204 c-3 -9 -6 -25 -6 -37 0 -17 2 -19 9 -8 7 11 13 12 23 3 12
-9 14 -5 15 23 1 27 -3 35 -17 35 -10 0 -21 -7 -24 -16z m34 -4 c0 -5 -4 -10
-10 -10 -5 0 -10 5 -10 10 0 6 5 10 10 10 6 0 10 -4 10 -10z"/>
<path d="M1990 187 c0 -23 5 -34 15 -34 18 0 20 13 3 20 -10 4 -10 6 0 6 7 1
10 6 6 12 -3 6 0 15 7 20 10 6 8 9 -8 9 -19 0 -23 -5 -23 -33z"/>
<path d="M2045 200 c-4 -12 -1 -27 5 -35 14 -17 40 -20 40 -5 0 6 -7 10 -15
10 -25 0 -18 38 8 43 19 4 19 4 -5 6 -19 1 -29 -5 -33 -19z"/>
<path d="M2111 183 c1 -34 2 -35 9 -13 11 36 11 50 0 50 -5 0 -10 -17 -9 -37z"/>
<path d="M2145 200 c-4 -12 -1 -27 5 -35 14 -17 40 -20 40 -5 0 6 -7 10 -15
10 -23 0 -18 30 8 40 21 8 21 9 -5 9 -18 1 -29 -5 -33 -19z"/>
<path d="M2217 213 c-4 -3 -7 -19 -7 -34 0 -29 8 -31 61 -14 11 4 27 1 36 -7
15 -11 16 -10 10 12 -4 14 -7 31 -7 38 0 21 -26 13 -38 -13 -6 -14 -20 -25
-30 -25 -15 0 -18 5 -14 25 4 25 1 31 -11 18z m83 -23 c0 -5 -4 -10 -10 -10
-5 0 -10 5 -10 10 0 6 5 10 10 10 6 0 10 -4 10 -10z"/>
<path d="M2335 199 c-10 -29 19 -58 42 -43 23 15 28 34 8 34 -9 0 -13 -4 -10
-10 3 -5 -1 -10 -10 -10 -26 0 -13 33 15 41 23 7 23 7 -7 8 -24 1 -33 -4 -38
-20z"/>
<path d="M2420 206 c0 -8 -3 -21 -6 -30 -5 -12 0 -16 17 -16 19 0 21 2 9 10
-12 8 -12 10 -1 10 10 0 11 3 2 14 -10 11 -8 15 6 19 14 4 13 5 -4 6 -14 1
-23 -5 -23 -13z"/>
<path d="M2471 190 c-11 -34 -5 -39 15 -12 13 16 13 16 14 -3 1 -20 1 -20 15
-1 9 11 15 14 15 7 0 -16 26 -42 34 -34 10 10 7 25 -4 18 -6 -4 -10 7 -10 24
0 32 -22 44 -34 19 -5 -10 -7 -10 -12 0 -9 20 -21 14 -33 -18z"/>
<path d="M2630 206 c0 -8 -3 -21 -6 -29 -3 -9 3 -16 15 -20 12 -3 21 -1 21 4
0 5 -5 9 -11 9 -7 0 -9 10 -7 25 3 14 1 25 -3 25 -5 0 -9 -6 -9 -14z"/>
<path d="M2678 190 c-4 -27 -2 -30 23 -30 19 0 30 6 34 20 8 27 -1 40 -29 40
-19 0 -25 -7 -28 -30z m42 0 c0 -11 -7 -20 -15 -20 -15 0 -21 21 -8 33 12 13
23 7 23 -13z"/>
<path d="M2758 192 l-17 -28 35 0 c25 0 33 4 29 14 -3 7 -5 20 -5 28 0 24 -25
16 -42 -14z m32 -2 c0 -5 -4 -10 -10 -10 -5 0 -10 5 -10 10 0 6 5 10 10 10 6
0 10 -4 10 -10z"/>
<path d="M697 163 c-4 -3 -7 -11 -7 -17 0 -6 5 -5 12 2 6 6 9 14 7 17 -3 3 -9
2 -12 -2z"/>
<path d="M2820 159 c0 -5 5 -7 10 -4 6 3 10 8 10 11 0 2 -4 4 -10 4 -5 0 -10
-5 -10 -11z"/>
</g>
</svg>
